<svg xmlns="http://www.w3.org/2000/svg" xmlns:xlink="http://www.w3.org/1999/xlink" width="1366" zoomAndPan="magnify" viewBox="0 0 1024.5 576" height="768" preserveAspectRatio="xMidYMid meet" version="1.2"><defs><clipPath id="cad5c04df8"><path d="M 471 87 L 725 87 L 725 525.285156 L 471 525.285156 Z M 471 87 "/></clipPath></defs><g id="1d2ef3352d"><path style=" stroke:none;fill-rule:nonzero;fill:#000000;fill-opacity:1;" d="M 566.835938 179.417969 L 610.085938 139.636719 L 610.085938 78.320312 C 610.085938 77.753906 610.113281 77.1875 610.167969 76.621094 C 610.222656 76.054688 610.308594 75.492188 610.417969 74.933594 C 610.527344 74.375 610.664062 73.824219 610.832031 73.28125 C 610.996094 72.734375 611.1875 72.199219 611.402344 71.675781 C 611.621094 71.148438 611.863281 70.632812 612.128906 70.132812 C 612.398438 69.628906 612.6875 69.140625 613.003906 68.667969 C 613.316406 68.195312 613.65625 67.738281 614.015625 67.296875 C 614.375 66.855469 614.753906 66.433594 615.15625 66.03125 C 615.558594 65.628906 615.976562 65.246094 616.417969 64.882812 C 616.855469 64.519531 617.3125 64.179688 617.78125 63.863281 C 618.253906 63.546875 618.742188 63.25 619.242188 62.980469 C 619.742188 62.710938 620.253906 62.46875 620.78125 62.246094 C 621.304688 62.027344 621.839844 61.835938 622.382812 61.667969 C 622.925781 61.5 623.476562 61.359375 624.035156 61.246094 C 624.589844 61.132812 625.152344 61.046875 625.71875 60.988281 C 626.285156 60.929688 626.851562 60.898438 627.421875 60.894531 L 627.421875 51.132812 L 396.121094 51.132812 L 396.121094 60.894531 C 396.691406 60.894531 397.261719 60.921875 397.828125 60.980469 C 398.398438 61.035156 398.960938 61.117188 399.523438 61.230469 C 400.082031 61.339844 400.632812 61.480469 401.179688 61.644531 C 401.726562 61.8125 402.261719 62.003906 402.789062 62.222656 C 403.316406 62.441406 403.832031 62.683594 404.335938 62.953125 C 404.839844 63.222656 405.328125 63.515625 405.804688 63.832031 C 406.277344 64.148438 406.738281 64.488281 407.175781 64.851562 C 407.617188 65.210938 408.042969 65.59375 408.445312 66 C 408.847656 66.402344 409.230469 66.824219 409.59375 67.265625 C 409.957031 67.707031 410.296875 68.164062 410.613281 68.640625 C 410.929688 69.113281 411.222656 69.601562 411.492188 70.105469 C 411.761719 70.609375 412.003906 71.125 412.222656 71.652344 C 412.441406 72.179688 412.632812 72.71875 412.796875 73.261719 C 412.964844 73.808594 413.101562 74.363281 413.214844 74.921875 C 413.324219 75.480469 413.410156 76.046875 413.464844 76.613281 C 413.519531 77.183594 413.550781 77.75 413.550781 78.320312 L 413.550781 154.601562 L 367.929688 112.355469 L 340.554688 87.355469 L 324.496094 99.765625 L 323.765625 100.3125 L 299.222656 119.199219 C 301.054688 119.835938 302.824219 120.609375 304.535156 121.519531 C 306.246094 122.433594 307.875 123.46875 309.425781 124.632812 C 310.976562 125.796875 312.425781 127.074219 313.777344 128.464844 C 315.128906 129.851562 316.367188 131.335938 317.488281 132.917969 C 318.609375 134.5 319.605469 136.15625 320.46875 137.890625 C 321.332031 139.628906 322.058594 141.417969 322.644531 143.265625 C 323.234375 145.113281 323.671875 146.996094 323.96875 148.910156 C 324.261719 150.828125 324.410156 152.753906 324.40625 154.691406 L 324.40625 347.761719 C 324.410156 349.277344 324.324219 350.789062 324.144531 352.292969 C 323.964844 353.800781 323.695312 355.289062 323.335938 356.765625 C 322.976562 358.238281 322.527344 359.683594 321.992188 361.101562 C 321.453125 362.519531 320.832031 363.902344 320.128906 365.242188 C 319.421875 366.585938 318.640625 367.882812 317.777344 369.128906 C 316.914062 370.375 315.976562 371.566406 314.96875 372.699219 C 313.960938 373.832031 312.886719 374.902344 311.75 375.902344 C 310.609375 376.90625 309.414062 377.835938 308.164062 378.691406 L 324.40625 394.660156 L 326.230469 396.390625 L 336.449219 406.429688 L 344.570312 414.367188 L 351.320312 421.121094 L 367.652344 436.722656 L 367.652344 140.730469 L 413.273438 182.976562 L 413.273438 435.078125 C 413.277344 436.601562 413.183594 438.117188 413 439.628906 C 412.816406 441.136719 412.542969 442.632812 412.179688 444.109375 C 411.816406 445.585938 411.363281 447.035156 410.820312 448.457031 C 410.28125 449.878906 409.65625 451.265625 408.945312 452.609375 C 408.238281 453.957031 407.449219 455.257812 406.585938 456.507812 C 405.71875 457.757812 404.777344 458.949219 403.765625 460.085938 C 402.753906 461.222656 401.679688 462.296875 400.539062 463.300781 C 399.394531 464.308594 398.199219 465.242188 396.941406 466.101562 L 413.550781 482.34375 L 456.796875 524.769531 L 456.796875 73.394531 L 566.835938 73.394531 Z M 566.835938 179.417969 "/><g clip-rule="nonzero" clip-path="url(#cad5c04df8)"><path style=" stroke:none;fill-rule:nonzero;fill:#000000;fill-opacity:1;" d="M 699.230469 347.761719 L 699.230469 154.691406 C 699.226562 152.753906 699.371094 150.828125 699.664062 148.910156 C 699.960938 146.996094 700.402344 145.113281 700.988281 143.265625 C 701.574219 141.417969 702.300781 139.628906 703.164062 137.890625 C 704.03125 136.15625 705.023438 134.5 706.144531 132.917969 C 707.265625 131.335938 708.503906 129.851562 709.855469 128.464844 C 711.207031 127.074219 712.65625 125.796875 714.207031 124.632812 C 715.757812 123.46875 717.386719 122.433594 719.097656 121.519531 C 720.808594 120.609375 722.582031 119.835938 724.410156 119.199219 L 699.957031 100.3125 L 699.320312 99.765625 L 683.171875 87.355469 L 655.796875 112.355469 L 610.175781 154.601562 L 566.925781 194.382812 L 512.183594 245.023438 L 501.597656 235.351562 L 471.851562 208.617188 L 471.851562 236.992188 L 485.902344 249.949219 L 496.488281 259.621094 L 511.910156 273.855469 L 566.652344 324.492188 L 566.652344 525.226562 L 610.085938 482.34375 L 626.417969 466.285156 C 625.164062 465.421875 623.964844 464.492188 622.824219 463.484375 C 621.679688 462.476562 620.605469 461.40625 619.59375 460.269531 C 618.582031 459.132812 617.644531 457.941406 616.777344 456.6875 C 615.910156 455.4375 615.121094 454.140625 614.414062 452.792969 C 613.703125 451.445312 613.078125 450.0625 612.539062 448.640625 C 612 447.21875 611.546875 445.769531 611.179688 444.292969 C 610.816406 442.8125 610.542969 441.320312 610.359375 439.808594 C 610.175781 438.300781 610.085938 436.785156 610.085938 435.261719 L 610.085938 335.441406 L 566.835938 295.660156 L 527.238281 259.164062 L 566.835938 222.667969 L 610.085938 182.886719 L 655.707031 140.640625 L 655.707031 436.722656 L 672.585938 421.121094 L 679.429688 414.367188 L 687.550781 406.429688 L 699.59375 394.660156 L 715.742188 378.691406 C 714.480469 377.839844 713.277344 376.914062 712.128906 375.917969 C 710.980469 374.917969 709.894531 373.851562 708.875 372.722656 C 707.855469 371.59375 706.910156 370.402344 706.035156 369.15625 C 705.160156 367.910156 704.363281 366.617188 703.648438 365.273438 C 702.929688 363.933594 702.296875 362.550781 701.75 361.132812 C 701.199219 359.710938 700.742188 358.265625 700.367188 356.789062 C 699.996094 355.3125 699.714844 353.820312 699.523438 352.308594 C 699.332031 350.796875 699.234375 349.28125 699.230469 347.761719 Z M 699.230469 347.761719 "/></g></g></svg>